<?xml version="1.0" encoding="UTF-8"?>
<svg id="Layer_1" data-name="Layer 1" xmlns="http://www.w3.org/2000/svg" xmlns:xlink="http://www.w3.org/1999/xlink" viewBox="0 0 1000 1000">
  <defs>
    <style>
      .cls-1 {
        fill: #de5c8e;
      }

      .cls-2 {
        fill: none;
      }

      .cls-3 {
        clip-path: url(#clippath);
      }
    </style>
    <clipPath id="clippath">
      <rect class="cls-2" width="1000" height="1000"/>
    </clipPath>
  </defs>
  <g class="cls-3">
    <path class="cls-1" d="M477.96,342.67l-116.64,267.61v29.64l20.93-22.75,99.49-273c-1.24-.44-2.5-.94-3.79-1.51"/>
    <path class="cls-1" d="M469.66,338.16l-130.04,228.67-5.83,32.57,23.53-22.43,115.79-236.66c-1.12-.64-2.26-1.35-3.45-2.15"/>
    <path class="cls-1" d="M463.04,333.03l-141.63,180.1-12.66,34.43,28.45-18.87,128.2-193.64c-.84-.67-1.62-1.35-2.37-2.02"/>
    <path class="cls-1" d="M456.41,325.74l-147.34,135.35-11.07,28.62,23.71-9.46,137.44-151.22c-1.02-1.13-1.93-2.22-2.74-3.29"/>
    <path class="cls-1" d="M451.67,318.06l-141.03,87.02-15.34,22.13,22.31-3.57,136.28-101.62c-.8-1.28-1.55-2.61-2.23-3.96"/>
    <path class="cls-1" d="M448.32,309.73l-130.83,49.93-18.11,17.71,25.06-1.38,125.22-62.3c-.48-1.23-.92-2.54-1.34-3.96"/>
    <path class="cls-1" d="M446.45,300.75l-115.5,18.69-19.44,12.16,21.92,4.3,113.6-31.3c-.23-1.24-.43-2.52-.57-3.84"/>
    <path class="cls-1" d="M342.64,286.76l-15.21,6.08,15.3,6.35,103.34-4.62c0-1.09.05-2.18.13-3.27l-103.56-4.54Z"/>
    <path class="cls-1" d="M345.29,267.54l15.83,8.96,85.87,9c.24-1.35.53-2.63.85-3.86l-83.86-18.19-18.7,4.09Z"/>
    <path class="cls-1" d="M382.11,242h-19.6l14.69,11.73,72.62,22.11c.43-1.06.88-2.1,1.36-3.1l-69.07-30.74Z"/>
    <path class="cls-1" d="M397.49,223.33l-13.43-.91,6.56,11.7,63.76,32.93c.59-.91,1.21-1.81,1.86-2.68l-58.75-41.03Z"/>
    <path class="cls-1" d="M417.48,209.76l-13.37-3.16,3.96,12.6,52.11,40.42c.76-.8,1.55-1.59,2.4-2.38l-45.1-47.48Z"/>
    <path class="cls-1" d="M467.69,252.99c.96-.69,1.96-1.37,3.03-2.03l-34-54.53-12.58-5.96,1.84,13.92,41.71,48.6Z"/>
    <path class="cls-1" d="M479.96,246.3l-22.25-60.68-11.01-7.61-1.07,13.32,31.21,56.28c1-.46,2.04-.9,3.12-1.31"/>
    <path class="cls-1" d="M486.99,244.09c1.19-.28,2.4-.53,3.64-.74l-9.27-63.37-9.19-9.9-3.39,13.15,18.22,60.86Z"/>
    <path class="cls-1" d="M500,242.5c.65,0,1.29.03,1.93.06l4.47-65.76-6.44-11.88-6.36,11.48,4.58,66.15c.6-.04,1.21-.06,1.82-.06"/>
    <path class="cls-1" d="M522.04,342.67c-1.29.57-2.55,1.07-3.79,1.51l99.49,273,20.93,22.75v-29.64l-116.64-267.61Z"/>
    <path class="cls-1" d="M530.34,338.16c-1.19.8-2.33,1.51-3.45,2.15l115.79,236.66,23.53,22.43-5.83-32.57-130.04-228.67Z"/>
    <path class="cls-1" d="M536.96,333.03c-.75.68-1.53,1.35-2.37,2.02l128.2,193.64,28.45,18.87-12.66-34.43-141.63-180.1Z"/>
    <path class="cls-1" d="M678.29,480.25l23.71,9.46-11.07-28.62-147.34-135.35c-.81,1.07-1.72,2.16-2.74,3.29l137.44,151.22Z"/>
    <path class="cls-1" d="M682.38,423.64l22.31,3.57-15.34-22.13-141.03-87.02c-.69,1.36-1.43,2.68-2.23,3.96l136.28,101.61Z"/>
    <path class="cls-1" d="M675.56,375.99l25.06,1.38-18.11-17.71-130.84-49.93c-.42,1.42-.86,2.73-1.34,3.96l125.22,62.3Z"/>
    <path class="cls-1" d="M688.49,331.59l-19.44-12.16-115.5-18.68c-.15,1.31-.34,2.6-.57,3.84l113.6,31.3,21.92-4.3Z"/>
    <path class="cls-1" d="M657.26,299.19l15.3-6.35-15.21-6.08-103.56,4.54c.08,1.09.12,2.18.13,3.27l103.34,4.62Z"/>
    <path class="cls-1" d="M636,263.45l-83.86,18.19c.32,1.23.6,2.51.85,3.86l85.87-9,15.83-8.96-18.7-4.09Z"/>
    <path class="cls-1" d="M617.89,242l-69.07,30.74c.48,1,.93,2.04,1.36,3.1l72.62-22.11,14.69-11.73h-19.6Z"/>
    <path class="cls-1" d="M602.51,223.33l-58.75,41.03c.65.87,1.27,1.77,1.86,2.68l63.76-32.93,6.56-11.7-13.43.91Z"/>
    <path class="cls-1" d="M582.52,209.76l-45.1,47.48c.85.79,1.65,1.58,2.4,2.38l52.11-40.42,3.96-12.6-13.37,3.16Z"/>
    <path class="cls-1" d="M532.31,252.99l41.71-48.6,1.84-13.92-12.58,5.96-34,54.53c1.07.66,2.07,1.34,3.03,2.03"/>
    <path class="cls-1" d="M520.04,246.3c1.08.41,2.12.86,3.12,1.31l31.21-56.28-1.07-13.32-11.01,7.61-22.25,60.68Z"/>
    <path class="cls-1" d="M513.01,244.09l18.22-60.86-3.4-13.15-9.19,9.9-9.27,63.37c1.24.21,2.45.46,3.64.74"/>
    <path class="cls-1" d="M468.08,702.61c5.87-4.45,10.22-8.6,13.49-12.84l-.29-.42c-1.91-2.75-4.45-6.45-4.81-10.05-2.15,1.92-4.53,3.86-7.23,5.86-.34.25-.75.38-1.15.38s-.81-.13-1.16-.38c-2.7-2-5.08-3.94-7.23-5.87-.36,3.6-2.9,7.3-4.81,10.05l-.29.42c3.27,4.25,7.62,8.39,13.49,12.84"/>
    <path class="cls-1" d="M389.64,687.84c3.39,4.93,8.14,9.65,14.89,14.77,5.87-4.45,10.22-8.6,13.49-12.84l-.29-.42c-1.91-2.75-4.45-6.45-4.81-10.05-2.15,1.92-4.53,3.86-7.23,5.86-.34.25-.75.38-1.15.38s-.81-.13-1.15-.38c-2.71-2.01-5.13-3.96-7.3-5.89-1.72,2.34-4.84,4.62-7.89,6.48.32.48.65.95.95,1.39l.5.72Z"/>
    <path class="cls-1" d="M455.88,678.45c0-1.05-.31-1.93-.7-2.64h-5.97c-.39.71-.7,1.59-.7,2.64,0,2.4,2,5.5,3.69,7.95,1.69-2.45,3.69-5.55,3.69-7.95"/>
    <path class="cls-1" d="M487.65,678.45c0-1.05-.31-1.93-.7-2.64h-5.97c-.39.71-.7,1.59-.7,2.64,0,2.4,2,5.5,3.69,7.95,1.69-2.46,3.69-5.55,3.69-7.95"/>
    <path class="cls-1" d="M424.11,678.45c0-1.05-.31-1.93-.7-2.64h-5.97c-.39.71-.7,1.59-.7,2.64,0,2.4,2,5.5,3.69,7.95,1.69-2.45,3.69-5.55,3.69-7.95"/>
    <path class="cls-1" d="M436.31,702.61c5.87-4.45,10.22-8.6,13.49-12.84l-.29-.42c-1.91-2.75-4.44-6.44-4.81-10.04-2.59,2.31-5.12,4.29-7.23,5.85-.34.25-.75.38-1.15.38s-.81-.13-1.16-.38c-2.7-2-5.08-3.94-7.23-5.86-.36,3.6-2.89,7.29-4.8,10.05l-.3.43c3.27,4.25,7.62,8.39,13.49,12.84"/>
    <path class="cls-1" d="M499.85,702.61c5.87-4.45,10.22-8.6,13.49-12.84l-.29-.42c-1.91-2.75-4.44-6.44-4.81-10.04-2.59,2.31-5.12,4.29-7.23,5.85-.34.25-.75.38-1.16.38s-.81-.13-1.15-.38c-2.7-2-5.08-3.94-7.23-5.86-.36,3.6-2.89,7.3-4.81,10.05l-.29.43c3.27,4.25,7.62,8.39,13.49,12.84"/>
    <path class="cls-1" d="M595.16,702.61c6.75-5.12,11.5-9.84,14.89-14.77l.49-.71c.33-.48.68-.99,1.04-1.52-3.04-1.87-6.13-4.16-7.79-6.51-2.22,1.98-4.69,3.99-7.48,6.05-.34.25-.75.38-1.15.38s-.81-.13-1.15-.38c-2.11-1.56-4.64-3.55-7.23-5.85-.36,3.6-2.9,7.29-4.81,10.04l-.29.42c3.26,4.25,7.62,8.39,13.49,12.84"/>
    <path class="cls-1" d="M582.96,678.45c0-1.05-.31-1.93-.7-2.64h-5.97c-.39.71-.7,1.59-.7,2.64,0,2.4,2,5.5,3.69,7.95,1.69-2.45,3.69-5.55,3.69-7.95"/>
    <path class="cls-1" d="M627.45,692.38c-2.41-.82-4.91-1.6-7.46-2.35-.5-.22-2.53-1.13-5.03-2.48-.42.63-.84,1.24-1.22,1.8l-.48.7c-5.03,7.32-12.08,12.96-16.94,16.56-.34.25-.75.38-1.16.38s-.81-.13-1.15-.38c-4.19-3.1-9.99-7.72-14.73-13.61-4.75,5.9-10.54,10.51-14.73,13.61-.34.25-.75.38-1.15.38s-.81-.13-1.16-.38c-4.18-3.1-9.98-7.72-14.73-13.61-4.75,5.9-10.54,10.51-14.73,13.61-.34.25-.75.38-1.16.38s-.81-.13-1.15-.38c-4.18-3.1-9.98-7.72-14.73-13.61-4.74,5.89-10.54,10.51-14.73,13.61-.34.25-.75.38-1.16.38s-.81-.13-1.15-.38c-4.19-3.1-9.98-7.72-14.73-13.61-4.75,5.9-10.54,10.51-14.73,13.61-.34.25-.75.38-1.16.38s-.81-.13-1.15-.38c-4.18-3.1-9.98-7.72-14.73-13.61-4.74,5.89-10.54,10.51-14.73,13.61-.34.25-.75.38-1.15.38s-.81-.13-1.16-.38c-4.18-3.1-9.98-7.72-14.73-13.61-4.75,5.9-10.54,10.51-14.73,13.61-.34.25-.75.38-1.15.38s-.81-.13-1.15-.38c-4.86-3.6-11.9-9.23-16.94-16.56l-.49-.7c-.36-.52-.75-1.09-1.14-1.67-2.79,1.49-4.95,2.43-4.95,2.43h.04c-2.47.74-4.89,1.49-7.23,2.29-29.15,9.89-46.53,23.67-51.01,40.19l356.68-.35c-4.63-16.37-21.95-30.02-50.89-39.84"/>
    <path class="cls-1" d="M519.42,678.45c0-1.05-.31-1.93-.7-2.64h-5.97c-.39.71-.7,1.59-.7,2.64,0,2.4,2,5.5,3.69,7.95,1.69-2.45,3.69-5.55,3.69-7.95"/>
    <path class="cls-1" d="M531.62,702.61c5.87-4.45,10.22-8.6,13.49-12.84l-.29-.42c-1.91-2.75-4.45-6.45-4.81-10.05-2.15,1.92-4.53,3.86-7.23,5.86-.34.25-.75.38-1.15.38s-.81-.13-1.15-.38c-2.7-2-5.08-3.94-7.23-5.87-.36,3.6-2.9,7.3-4.81,10.05l-.29.42c3.27,4.25,7.62,8.39,13.49,12.84"/>
    <path class="cls-1" d="M551.19,678.45c0-1.05-.31-1.93-.7-2.64h-5.97c-.39.71-.7,1.59-.7,2.64,0,2.4,2,5.5,3.69,7.95,1.69-2.46,3.69-5.55,3.69-7.95"/>
    <path class="cls-1" d="M563.39,702.61c5.87-4.45,10.22-8.6,13.49-12.84l-.29-.42c-1.91-2.75-4.45-6.45-4.81-10.05-2.15,1.92-4.53,3.86-7.23,5.87-.34.25-.75.38-1.15.38s-.81-.13-1.16-.38c-2.7-2-5.08-3.94-7.23-5.86-.36,3.6-2.9,7.3-4.81,10.05l-.29.42c3.26,4.25,7.62,8.39,13.49,12.84"/>
    <path class="cls-1" d="M372.55,793.43c31.96,10.83,76.01,16.57,127.37,16.57s95.45-5.73,127.41-16.57c29.15-9.89,46.53-23.31,51.01-39.84h-356.68c4.63,16.36,21.95,30.02,50.89,39.84"/>
    <path class="cls-1" d="M320.55,748c-.12-1.16-.19-2.32-.19-3.5,0-1.69.14-3.32.37-4.91h358.46c.23,1.59.37,3.22.37,4.91,0,1.18-.07,2.35-.19,3.5h-358.8Z"/>
    <path class="cls-1" d="M295.6,709.46h0c6.32,0,12.35,5.33,14.33,12.69,1.17,4.37.83,8.83-.98,12.56-1.67,3.45-4.41,5.83-7.72,6.73-.94.25-1.91.38-2.88.38-6.32,0-12.35-5.33-14.33-12.69-1.18-4.37-.83-8.83.98-12.56,1.67-3.45,4.42-5.84,7.72-6.73.94-.25,1.91-.38,2.88-.38M295.6,703.59c-1.46,0-2.94.19-4.41.58-10.29,2.77-16.04,14.63-12.85,26.48,2.74,10.17,11.17,17.03,20,17.03,1.46,0,2.94-.19,4.41-.58,10.29-2.77,16.04-14.63,12.85-26.48-2.74-10.17-11.17-17.03-20-17.03"/>
    <path class="cls-1" d="M306.9,747.57h0c.67,0,1.26.12,1.81.37,1.7.77,2.94,2.88,3.41,5.8.61,3.79-.16,8.43-2.11,12.74-3.42,7.56-9.24,11.63-12.98,11.63-.67,0-1.26-.12-1.81-.37-1.7-.77-2.94-2.88-3.41-5.8-.61-3.79.16-8.43,2.11-12.74,3.42-7.56,9.24-11.63,12.98-11.63M306.9,741.69c-6.66,0-14.19,5.92-18.33,15.09-5.06,11.19-3.16,22.97,4.24,26.32,1.34.6,2.76.89,4.23.89,6.66,0,14.19-5.92,18.33-15.09,5.06-11.19,3.16-22.97-4.24-26.32-1.34-.6-2.76-.89-4.23-.89"/>
    <path class="cls-1" d="M306.07,754.02c-5.64,0-10.25-4.61-10.25-10.23s4.61-10.24,10.25-10.24,10.21,4.58,10.21,10.24-4.57,10.23-10.21,10.23"/>
    <rect class="cls-1" x="314.32" y="758.06" width="3.92" height="31.98"/>
    <path class="cls-1" d="M326.08,795.78c.59-.62.95-1.4.95-2.25,0-.69-.27-1.29-.65-1.86l-10.12-12.9-9.89,12.62c-.49.66-.83,1.36-.83,2.15,0,.85.36,1.62.95,2.25h19.61Z"/>
    <rect class="cls-1" x="305.53" y="793.24" width="21.5" height="41.83"/>
    <path class="cls-1" d="M704.4,709.46c.97,0,1.94.13,2.88.38,3.31.89,6.05,3.28,7.72,6.73,1.81,3.73,2.16,8.19.98,12.56-1.98,7.35-8,12.69-14.33,12.69-.97,0-1.94-.13-2.88-.38-3.31-.89-6.05-3.28-7.72-6.73-1.81-3.73-2.16-8.19-.98-12.56,1.98-7.35,8.01-12.69,14.33-12.69M704.4,703.59c-8.84,0-17.27,6.86-20,17.03-3.19,11.86,2.56,23.71,12.85,26.48,1.46.39,2.94.58,4.41.58,8.84,0,17.27-6.87,20-17.03,3.19-11.86-2.56-23.71-12.85-26.48-1.46-.39-2.94-.58-4.41-.58"/>
    <path class="cls-1" d="M693.1,747.57c3.74,0,9.56,4.08,12.98,11.63,3.86,8.53,2.49,16.82-1.3,18.54-.55.25-1.14.37-1.81.37-3.74,0-9.56-4.08-12.98-11.63-1.95-4.31-2.72-8.95-2.11-12.74.47-2.92,1.71-5.03,3.41-5.8.55-.25,1.14-.37,1.81-.37M693.1,741.69c-1.47,0-2.89.29-4.23.89-7.4,3.35-9.3,15.13-4.24,26.32,4.15,9.16,11.68,15.09,18.33,15.09,1.47,0,2.89-.29,4.23-.89,7.4-3.35,9.3-15.13,4.24-26.32-4.15-9.16-11.68-15.09-18.33-15.09"/>
    <path class="cls-1" d="M693.93,754.02c5.64,0,10.25-4.61,10.25-10.23s-4.61-10.24-10.25-10.24-10.21,4.58-10.21,10.24,4.57,10.23,10.21,10.23"/>
    <rect class="cls-1" x="681.76" y="758.06" width="3.92" height="31.98"/>
    <path class="cls-1" d="M673.92,795.78c-.58-.62-.95-1.4-.95-2.25,0-.69.28-1.29.65-1.86l10.12-12.9,9.89,12.62c.49.66.83,1.36.83,2.15,0,.85-.36,1.62-.95,2.25h-19.61Z"/>
    <rect class="cls-1" x="672.97" y="793.24" width="21.5" height="41.83"/>
    <path class="cls-1" d="M542.94,590.93c.17,7.65,2.99,14.77,7.81,19.65,3.53,3.52,7.8,9.82,9.26,20.4h-120.5c1.43-10.5,5.69-16.85,9.23-20.44,4.81-4.91,7.63-12.02,7.81-19.62h86.39M546.84,587.03h-94.18v3.16c0,6.91-2.48,13.31-6.7,17.62-4.56,4.61-9.92,12.93-10.74,27.07h129.09c-.85-14.14-6.22-22.51-10.81-27.07-4.23-4.28-6.67-10.71-6.67-17.62v-3.16Z"/>
    <path class="cls-1" d="M499.92,283.88l.37.03c4.4.36,7.85,4.06,7.85,8.42,0,4.66-3.8,8.45-8.47,8.45s-8.47-3.79-8.47-8.45c0-4.3,3.4-7.99,7.74-8.41l.35-.04h.62M500.61,279.97h-2.03v.06c-6.3.6-11.28,5.92-11.28,12.3,0,6.81,5.56,12.35,12.37,12.35s12.37-5.54,12.37-12.35c0-6.43-5.05-11.79-11.43-12.31v-.05Z"/>
    <path class="cls-1" d="M503.51,319.81v15.87c-.07,3.9.14,7.79.62,11.55l8.07,64.75h-24.85l8.1-64.76c.34-2.79.63-10.37.6-11.48v-15.94h7.45M507.41,315.91h-15.26v19.85c.02,1.03-.25,8.38-.57,11l-8.65,69.14h33.69l-8.62-69.14c-.46-3.64-.65-7.33-.59-11v-19.85Z"/>
    <path class="cls-1" d="M522.17,490.12l6.53,30.6.15.71.39.61c.57.88,1.12,1.69,1.65,2.42,2.2,3,4.85,8.37,5.82,17.4h-73.62c.95-8.97,3.59-14.38,5.8-17.44.55-.77,1.13-1.62,1.71-2.52l.39-.6.15-.7,6.5-30.48h44.52M525.33,486.22h-50.84l-7.16,33.57c-.55.84-1.09,1.65-1.6,2.37-2.89,4.02-6.31,11.28-6.82,23.61h82.02c-.54-12.34-3.95-19.63-6.87-23.61-.49-.68-1.01-1.45-1.53-2.25l-7.19-33.69Z"/>
    <path class="cls-1" d="M512.58,426.28c.02,4.62,1.07,8.83,2.98,11.89.16.25.34.52.53.81,1.12,1.7,2.51,3.81,3.08,6.75v13.57h-38.78v-13.58c.56-2.91,1.93-5.01,3.03-6.71.2-.31.39-.6.57-.89,1.89-3.06,2.95-7.27,2.96-11.85h25.64M516.49,422.37h-33.44v3.79c0,3.89-.88,7.49-2.38,9.91-1.16,1.87-3.43,4.84-4.19,9.31v17.83h46.59v-17.83c-.76-4.48-3.04-7.46-4.21-9.31-1.5-2.41-2.37-6.02-2.37-9.91v-3.79Z"/>
    <path class="cls-1" d="M499.78,451.3c-4.12,0-7.48-3.37-7.48-7.47s3.37-7.48,7.48-7.48,7.46,3.35,7.46,7.48-3.34,7.47-7.46,7.47"/>
    <path class="cls-1" d="M499.78,509.42c-4.12,0-7.48-3.37-7.48-7.47s3.37-7.48,7.48-7.48,7.46,3.35,7.46,7.48-3.34,7.47-7.46,7.47"/>
    <path class="cls-1" d="M526.69,472.09c.75,0,1.38.63,1.38,1.38v.75c0,.75-.63,1.38-1.38,1.38h-53.56c-.75,0-1.39-.63-1.39-1.38v-.75c0-.75.63-1.38,1.39-1.38h53.56M526.69,468.19h-53.56c-2.91,0-5.29,2.38-5.29,5.29v.75c0,2.91,2.38,5.29,5.29,5.29h53.56c2.91,0,5.29-2.38,5.29-5.29v-.75c0-2.91-2.38-5.29-5.29-5.29"/>
    <path class="cls-1" d="M488.6,634.89h-40.84l-.58-.69c-1.53-1.81-2.34-3.96-2.34-6.21,0-1.92.65-3.83,1.99-5.83l21.32-30.11,21.74,30.69c.76,1.27,1.65,3.03,1.65,5.24s-.81,4.39-2.34,6.21l-.59.69ZM449.64,630.99h37.07c.48-.75.91-1.77.91-3,0-.96-.31-1.92-1.02-3.11l-18.47-26.06-18.1,25.57c-.88,1.31-1.3,2.47-1.3,3.61,0,1.23.42,2.24.91,3"/>
    <path class="cls-1" d="M520.19,634.89h-40.85l-.58-.69c-1.53-1.81-2.34-3.96-2.34-6.21,0-1.92.65-3.83,1.98-5.82l21.32-30.11,21.74,30.69c.76,1.26,1.66,3.03,1.66,5.24s-.81,4.4-2.34,6.21l-.58.69ZM481.23,630.99h37.07c.49-.75.91-1.77.91-3,0-.96-.32-1.92-1.02-3.11l-18.47-26.06-18.1,25.57c-.87,1.31-1.3,2.47-1.3,3.61,0,1.23.43,2.24.91,3"/>
    <path class="cls-1" d="M551.79,634.89h-40.84l-.58-.69c-1.53-1.81-2.34-3.96-2.34-6.21,0-1.92.65-3.83,1.99-5.83l21.32-30.11,21.74,30.69c.76,1.26,1.66,3.03,1.66,5.24s-.81,4.39-2.34,6.21l-.59.69ZM512.83,630.99h37.07c.48-.75.91-1.77.91-3,0-.96-.32-1.92-1.02-3.11l-18.47-26.06-18.1,25.57c-.88,1.31-1.3,2.47-1.3,3.61,0,1.23.42,2.24.91,3"/>
    <path class="cls-1" d="M449.24,502.07c3.09,3.63,3.09,6.59,3.08,6.72v.18s0,.11,0,.11c0,.15,0,3.1-3.08,6.74-.17-.31-.34-.61-.5-.89l-.19-.33-.07-.12-.07-.11s-1.24-2.07-1.25-5.42c0-3.4,1.23-5.41,1.25-5.44l.07-.11.07-.12.19-.33c.16-.28.33-.57.5-.89M445.16,494c.7,1.12,1.12,2.36,1.21,3.65.11,1.6-.47,2.41-1.21,3.69,0,0-1.9,2.84-1.91,7.6.01,4.76,1.91,7.6,1.91,7.6.74,1.28,1.32,2.1,1.21,3.69-.09,1.29-.51,2.53-1.21,3.65,1.61-.57,2.97-1.44,3.95-2.5,7.22-5.94,7.14-11.95,7.12-12.44.02-.48.1-6.49-7.12-12.44-.98-1.06-2.34-1.93-3.95-2.5"/>
    <path class="cls-1" d="M467.23,522c-1.35-6.16-6.92-10.63-13.24-10.63v-3.9c8.14,0,15.31,5.76,17.05,13.7l-3.81.83Z"/>
    <path class="cls-1" d="M550.52,502.07c.17.32.34.61.5.89l.19.33.07.12.07.11s1.24,2.07,1.25,5.42c0,3.4-1.23,5.41-1.25,5.44l-.07.11-.07.12-.19.33c-.16.28-.33.57-.5.89-3.09-3.63-3.09-6.58-3.08-6.72v-.18s0-.11,0-.11c0-.15-.01-3.1,3.08-6.74M554.61,494c-1.61.57-2.97,1.44-3.95,2.5-7.22,5.94-7.14,11.95-7.12,12.44-.02.49-.1,6.5,7.12,12.44.98,1.06,2.34,1.93,3.95,2.5-.7-1.12-1.12-2.36-1.21-3.65-.11-1.59.47-2.41,1.21-3.69,0,0,1.9-2.84,1.91-7.6-.01-4.76-1.91-7.6-1.91-7.6-.74-1.28-1.32-2.1-1.21-3.69.09-1.29.51-2.53,1.21-3.65"/>
    <path class="cls-1" d="M532.68,521.4l-3.77-1.01c2.04-7.61,8.97-12.92,16.86-12.92v3.91c-6.12,0-11.5,4.12-13.09,10.03"/>
    <path class="cls-1" d="M459.94,434.59c3.09,3.63,3.09,6.58,3.08,6.72v.18s0,.11,0,.11c0,.15.01,3.1-3.08,6.74-.17-.31-.34-.61-.5-.89l-.19-.33-.07-.12-.07-.11s-1.24-2.07-1.25-5.42c0-3.4,1.23-5.41,1.25-5.44l.07-.11.07-.12.19-.33c.16-.28.33-.57.5-.89M455.86,426.52c.7,1.12,1.12,2.36,1.21,3.65.11,1.59-.47,2.41-1.21,3.69,0,0-1.9,2.84-1.91,7.6.01,4.76,1.91,7.6,1.91,7.6.74,1.28,1.32,2.1,1.21,3.69-.09,1.29-.51,2.53-1.21,3.65,1.61-.57,2.97-1.44,3.95-2.5,7.22-5.94,7.14-11.95,7.12-12.44.02-.48.1-6.49-7.12-12.44-.98-1.06-2.34-1.93-3.95-2.5"/>
    <path class="cls-1" d="M476.46,450.72c-2.41-4.21-6.92-6.83-11.77-6.83v-3.9c6.25,0,12.05,3.37,15.16,8.79l-3.39,1.94Z"/>
    <path class="cls-1" d="M539.6,434.65c.17.31.34.61.5.89l.19.33.07.12.07.11s1.24,2.07,1.25,5.42c0,3.4-1.23,5.41-1.25,5.44l-.07.11-.07.12-.19.33c-.16.28-.33.57-.5.89-3.09-3.63-3.09-6.58-3.08-6.72v-.18s0-.11,0-.11c0-.15-.01-3.1,3.08-6.74M543.69,426.58c-1.61.57-2.97,1.44-3.95,2.5-7.22,5.94-7.14,11.95-7.12,12.44-.02.49-.1,6.5,7.12,12.44.98,1.06,2.34,1.93,3.95,2.5-.7-1.12-1.12-2.36-1.21-3.65-.11-1.6.47-2.41,1.21-3.69,0,0,1.9-2.84,1.91-7.6-.01-4.76-1.91-7.6-1.91-7.6-.74-1.28-1.32-2.1-1.21-3.69.09-1.29.51-2.53,1.21-3.65"/>
    <path class="cls-1" d="M523.11,450.72l-3.38-1.96c3.11-5.38,8.9-8.72,15.11-8.72v3.9c-4.82,0-9.32,2.59-11.74,6.77"/>
    <path class="cls-1" d="M427.89,553.35c3.09,3.63,3.09,6.58,3.08,6.72v.18s0,.11,0,.11c0,.15.01,3.1-3.08,6.74-.17-.31-.34-.61-.5-.89l-.19-.33-.03-.06-.07-.11c-.05-.08-1.28-2.09-1.29-5.47,0-3.4,1.23-5.41,1.25-5.44l.07-.11.07-.12.19-.33c.16-.28.33-.57.5-.89M423.81,545.28c.7,1.12,1.12,2.36,1.21,3.65.11,1.59-.47,2.41-1.21,3.69,0,0-1.9,2.84-1.91,7.6.01,4.76,1.91,7.6,1.91,7.6.74,1.28,1.32,2.1,1.21,3.69-.09,1.29-.51,2.53-1.21,3.65,1.61-.57,2.97-1.44,3.95-2.5,7.22-5.94,7.14-11.95,7.12-12.44.02-.49.1-6.5-7.12-12.44-.98-1.06-2.34-1.93-3.95-2.5"/>
    <path class="cls-1" d="M446.04,574.18c-.98-6.57-6.74-11.53-13.4-11.53v-3.9c8.57,0,15.99,6.39,17.26,14.85l-3.86.58Z"/>
    <path class="cls-1" d="M572.11,553.35c.17.31.34.61.5.89l.19.33.03.07.07.11c.05.08,1.28,2.09,1.29,5.47,0,3.4-1.23,5.41-1.25,5.44l-.07.11-.07.12-.19.33c-.16.28-.33.57-.5.89-3.09-3.63-3.09-6.58-3.08-6.72v-.18s0-.11,0-.11c0-.15-.01-3.1,3.08-6.74M576.19,545.28c-1.61.57-2.97,1.44-3.95,2.5-7.22,5.94-7.14,11.95-7.12,12.44-.02.48-.1,6.49,7.12,12.44.98,1.06,2.34,1.93,3.95,2.5-.7-1.12-1.12-2.36-1.21-3.65-.11-1.59.47-2.41,1.21-3.69,0,0,1.9-2.84,1.91-7.6-.01-4.76-1.91-7.6-1.91-7.6-.74-1.28-1.32-2.1-1.21-3.69.09-1.29.51-2.53,1.21-3.65"/>
    <path class="cls-1" d="M553.96,574.2l-3.86-.57c1.25-8.49,8.67-14.89,17.27-14.89v3.9c-6.67,0-12.44,4.97-13.4,11.56"/>
    <path class="cls-1" d="M542.65,556.36h.05s.15,0,.15,0h.18s0,0,0,0c5.49.07,9.94,4.55,9.94,10.06s-4.47,10.02-9.99,10.06c-.05,0-.11,0-.19,0h-.16s-85.58,0-85.58,0h-.09s-.11,0-.11,0h-.06s-.06,0-.06,0c-.07,0-.14,0-.22,0-5.5-.05-9.97-4.55-9.97-10.06s4.46-10.01,9.97-10.06h.1s.12,0,.12,0h.06s.06,0,.06,0c.07,0,.14,0,.2,0h85.59M542.92,552.45s-.04,0-.07,0-.04,0-.07,0h-85.82c-.06,0-.11,0-.17,0-.06,0-.11,0-.17,0-7.71,0-13.97,6.25-13.97,13.97s6.25,13.97,13.97,13.97c.06,0,.11,0,.17,0,.06,0,.11,0,.17,0h85.82s.04,0,.07,0c.02,0,.04,0,.07,0,7.71,0,13.97-6.25,13.97-13.97s-6.25-13.97-13.97-13.97"/>
    <polygon class="cls-1" points="517.14 577.94 523.47 577.94 538.1 566.47 523.53 555.04 517.27 555.04 531.77 566.47 517.14 577.94"/>
    <polygon class="cls-1" points="483.1 577.94 468.47 566.47 483.03 555.04 476.71 555.04 462.14 566.47 476.77 577.94 483.1 577.94"/>
    <path class="cls-1" d="M500.13,573.89c-4.12,0-7.48-3.37-7.48-7.47s3.37-7.48,7.48-7.48,7.46,3.35,7.46,7.48-3.34,7.47-7.46,7.47"/>
    <path class="cls-1" d="M562.17,645.85h.07s.17,0,.17,0h.14c5.5.06,9.95,4.55,9.95,10.06s-4.47,10.01-9.98,10.06c-.05,0-.1,0-.16,0h-.18s-.02,0-.02,0h-124.72s-.11,0-.11,0h-.06s-.06,0-.06,0c-.07,0-.14,0-.22,0-5.5-.05-9.97-4.55-9.97-10.06s4.46-10.01,9.96-10.06h.15s.17,0,.17,0c.07,0,.15,0,.22,0h124.62M562.44,641.95s-.05,0-.07,0-.04,0-.07,0h-124.86c-.06,0-.11,0-.17,0-.06,0-.11,0-.17,0-7.71,0-13.97,6.25-13.97,13.97s6.25,13.97,13.97,13.97c.06,0,.11,0,.17,0,.06,0,.11,0,.17,0h124.86s.04,0,.07,0,.05,0,.07,0c7.71,0,13.97-6.25,13.97-13.97s-6.25-13.97-13.97-13.97"/>
    <polygon class="cls-1" points="530.62 668.92 536.95 668.92 553.47 655.96 538.12 643.91 531.86 643.91 547.15 655.96 530.62 668.92"/>
    <polygon class="cls-1" points="514.9 668.92 521.23 668.92 537.75 655.96 522.39 643.91 516.14 643.91 531.43 655.96 514.9 668.92"/>
    <polygon class="cls-1" points="484.65 668.92 468.12 655.96 483.48 643.91 477.15 643.91 461.79 655.96 478.32 668.92 484.65 668.92"/>
    <polygon class="cls-1" points="469.57 668.92 453.04 655.96 468.4 643.91 462.01 643.91 446.72 655.96 463.24 668.92 469.57 668.92"/>
    <path class="cls-1" d="M499.78,663.39c-4.12,0-7.48-3.37-7.48-7.47s3.37-7.48,7.48-7.48,7.46,3.35,7.46,7.48-3.34,7.47-7.46,7.47"/>
    <path class="cls-1" d="M433.91,663.39c-4.12,0-7.48-3.37-7.48-7.47s3.37-7.48,7.48-7.48,7.46,3.35,7.46,7.48-3.34,7.47-7.46,7.47"/>
    <path class="cls-1" d="M565.79,663.39c-4.12,0-7.48-3.37-7.48-7.47s3.37-7.48,7.48-7.48,7.46,3.35,7.46,7.48-3.34,7.47-7.46,7.47"/>
    <path class="cls-1" d="M538.13,541.87h-15.14c.28-.83.46-1.68.46-2.56,0-2.1-.93-3.76-1.73-4.95l-3.44-4.39,10.84-13.83-1.01-5.04-12.31,15.7-15.94-20.32-15.93,20.31-13.05-16.63-1.33,4.63,11.9,15.16-3.03,3.86c-1.38,1.86-2.05,3.66-2.05,5.48,0,.88.18,1.73.46,2.56h-16.28l-.45,3.9h78.71l-.67-3.9ZM486.81,541.87h-5.66c-.46-.65-.87-1.52-.87-2.56,0-.97.41-1.97,1.25-3.11l2.4-3.07,2.75,3.51c.68,1.04.99,1.86.99,2.67,0,1.04-.4,1.9-.87,2.56M510.3,533.83c-1.38,1.86-2.05,3.66-2.05,5.48,0,.88.18,1.73.46,2.56h-17.58c.28-.83.46-1.68.46-2.56,0-2.1-.93-3.75-1.73-4.95l-3.44-4.39,13.45-17.15,13.46,17.15-3.03,3.86ZM518.68,541.87h-5.67c-.46-.65-.86-1.52-.86-2.56,0-.97.41-1.97,1.25-3.11l2.4-3.06,2.75,3.51c.68,1.03.99,1.86.99,2.67,0,1.04-.4,1.91-.87,2.56"/>
    <polygon class="cls-1" points="523.65 589.2 515.61 600.55 507.57 589.2 502.79 589.2 515.61 607.31 528.43 589.2 523.65 589.2"/>
    <polygon class="cls-1" points="492.05 589.2 484.02 600.55 475.98 589.2 471.2 589.2 484.02 607.31 496.84 589.2 492.05 589.2"/>
  </g>
</svg>